<?xml version="1.0"?>
<svg xmlns="http://www.w3.org/2000/svg" viewBox="0 0 512 512" width="512" height="512"><g id="Fill_out_line" data-name="Fill out line"><path d="M376,307.13v75.9A40.9722,40.9722,0,0,1,335.03,424H64.97A40.97228,40.97228,0,0,1,24,383.03v-9.74A799.92513,799.92513,0,0,1,95.71,42.25L104,24H297.45a39.99655,39.99655,0,0,1,38.59,29.48l11.77,43.16A799.96461,799.96461,0,0,1,376,307.13Z" style="fill:#eedc9a"/><path d="M347.81,96.64,336.04,53.48A40.0032,40.0032,0,0,0,304,24.539V24H232V88h36.61786A799.93459,799.93459,0,0,0,216,373.29v9.74A40.97056,40.97056,0,0,0,256.97,424H335.03A40.97056,40.97056,0,0,0,376,383.03v-75.9A799.96461,799.96461,0,0,0,347.81,96.64Z" style="fill:#e88604"/><path d="M256,96a24,24,0,0,0,24,24H64A24,24,0,0,1,40,96V64A40,40,0,0,1,80,24H296a40,40,0,0,0-40,40Z" style="fill:#ece9c0"/><path d="M256,72h48a0,0,0,0,1,0,0V96a24,24,0,0,1-24,24h0a24,24,0,0,1-24-24V72A0,0,0,0,1,256,72Z" style="fill:#eebe33"/><path d="M104,280v0a127.93082,127.93082,0,0,0,8.6987,46.36807L140.165,396.9957A80,80,0,0,0,214.72537,448H377.27463A80,80,0,0,0,451.835,396.9957l27.46629-70.62761A127.93082,127.93082,0,0,0,488,280v0Z" style="fill:#379ec3"/><path d="M488,280c0,14.40991-18.67,27.55005-49.35,37.48C403.51,328.85,352.62,336,296,336s-107.51-7.15-142.65-18.52C122.67,307.55005,104,294.40991,104,280c0-30.93,85.96-56,192-56S488,249.07,488,280Z" style="fill:#8acce7"/><path d="M440,312a12.21446,12.21446,0,0,1-1.35,5.48C403.51,328.85,352.62,336,296,336s-107.51-7.15-142.65-18.52A12.21446,12.21446,0,0,1,152,312c0-22.09009,64.47-40,144-40S440,289.90991,440,312Z" style="fill:#eedc9a"/><path d="M364.26106,163.93644,427.93669,59.74a23.323,23.323,0,0,1,31.90069-7.83753l0,0a23.323,23.323,0,0,1,7.90152,32.16111L404.06331,188.26a23.323,23.323,0,0,1-31.90069,7.83753l0,0A23.323,23.323,0,0,1,364.26106,163.93644Z" style="fill:#a6b2bc"/><path d="M328,424l64.09859-5.82714A21.91712,21.91712,0,0,1,416,440v0a21.91712,21.91712,0,0,1-23.90141,21.82712L328,456Z" style="fill:#966342"/><rect x="56" y="392" width="328" height="96" rx="47.99995" ry="47.99995" style="fill:#723024"/><circle cx="104" cy="440" r="48" style="fill:#984e3c"/><path d="M96.06572,457.44857l-48.16431,4.37857A21.91712,21.91712,0,0,1,24,440v0a21.91712,21.91712,0,0,1,23.90141-21.82712l48.16431,4.37857A17.5205,17.5205,0,0,1,112,440v0A17.5205,17.5205,0,0,1,96.06572,457.44857Z" style="fill:#ad7d4d"/><path d="M34.96143,396.68652A32.75766,32.75766,0,0,1,32,383.0293v-9.7417A790.59356,790.59356,0,0,1,70.95117,128H246.134c-7.35144,23.08411-13.71539,46.67163-18.95086,70.26709l15.62011,3.46582C248.30328,176.94434,255.087,152.17249,262.95813,128H280a32.036,32.036,0,0,0,32-32V72a7.99977,7.99977,0,0,0-8-8H264a32.036,32.036,0,0,1,32-32h1.44824a32.06925,32.06925,0,0,1,30.87207,23.58008l11.77246,43.16553c2.792,10.23584,5.415,20.68115,7.79688,31.04589l15.59375-3.583c-2.42969-10.57373-5.106-21.23-7.9541-31.67286L343.75684,51.37012A48.10546,48.10546,0,0,0,297.44824,16H80A48.05436,48.05436,0,0,0,32,64V96a32.05585,32.05585,0,0,0,22.58533,30.58478A806.527,806.527,0,0,0,16,373.2876v9.7417A48.6442,48.6442,0,0,0,20.39893,403.314ZM296,80V96a16,16,0,0,1-32,0V80ZM48,96V64A32.036,32.036,0,0,1,80,32H260.252A47.80823,47.80823,0,0,0,248,64V96a31.80882,31.80882,0,0,0,4.29443,16H64A16.01833,16.01833,0,0,1,48,96Z"/><path d="M417.82129,228.49219l-3.64258,15.58008C462.76172,255.43164,480,270.52588,480,280c0,8.145-11.56036,17.59692-32.93567,25.94861-3.73523-11.89856-18.76288-21.73657-44.83484-29.30164l-4.459,15.36621c22.22027,6.44727,33.00268,14.22864,34.12561,19.15247C400.11121,320.8374,353.69568,328,296,328c-57.69812,0-104.11511-7.16321-135.90015-16.83557,1.59888-7.55017,24.41449-20.3783,72.99341-27.07947l-2.18652-15.84961c-24.37354,3.36231-45.0874,8.57715-59.90137,15.08106-14.59808,6.40869-23.3302,14.00195-26.067,22.63317C123.56146,297.59766,112,288.14539,112,280c0-3.37256,2.74854-15.35449,38.1167-27.93945,26.94189-9.58643,64.7207-16.28418,106.377-18.85889l-.9873-15.96973c-43.10791,2.66455-82.44092,9.68018-110.75342,19.7544C104.458,251.32471,96,268.2915,96,280a135.40123,135.40123,0,0,0,9.24268,49.26758l16.18994,41.63183,14.91211-5.79882-16.18994-41.63184a120.26574,120.26574,0,0,1-4.58008-14.41125c10.26,6.85681,24.46173,12.98242,42.4209,18.22033C194.96729,338.06152,243.978,344,296,344s101.03271-5.93848,138.00439-16.72217c17.95917-5.23791,32.161-11.36352,42.4209-18.22033a120.26574,120.26574,0,0,1-4.58008,14.41125l-27.4663,70.62744a71.90524,71.90524,0,0,1-10.65039,18.59815l12.543,9.93261A87.87832,87.87832,0,0,0,459.291,399.895l27.4663-70.62744A135.40123,135.40123,0,0,0,496,280C496,251.08887,447.01855,235.31934,417.82129,228.49219Z"/><path d="M354.31482,166.57275a164.02041,164.02041,0,0,0-90.45007,80.39893l-23.02,46.03027,14.31054,7.15625,23.021-46.03222a147.97176,147.97176,0,0,1,75.65851-70.2193,31.70933,31.70933,0,0,0,1.55115,4.56244c-22.067,18.579-41.89734,43.90338-56.27851,72.02942l-23.55029,45.75,14.22558,7.32324,23.56055-45.76953c13.34845-26.106,31.62927-49.54255,51.91767-66.72779a31.889,31.889,0,0,0,2.786,1.88306,31.22786,31.22786,0,0,0,3.30023,1.70624q-4.8036,8.99753-10.018,18.72052-13.08765,24.42846-26.96728,50.64843l-18.14161,34.22022,14.13672,7.49414,18.15284-34.24219q13.80541-26.23682,26.92236-50.56445c4.13519-7.71826,8.1112-15.14014,11.862-22.17664a146.04536,146.04536,0,0,1-17.67743,78.80555l-11.23486,20.60009,14.04687,7.66114,11.23389-20.59815A162.04587,162.04587,0,0,0,402.77118,201.273a31.03527,31.03527,0,0,0,8.11847-8.84137L474.56494,88.23486a31.32289,31.32289,0,0,0-53.45459-32.6665L357.43506,159.76514A31.55046,31.55046,0,0,0,354.31482,166.57275Zm16.77258,1.53516L434.7627,63.91162a15.32313,15.32313,0,1,1,26.1499,15.98047L397.2373,184.08838a15.32313,15.32313,0,1,1-26.1499-15.98047Z"/><path d="M414.2627,417.91455a30.017,30.017,0,0,0-22.88721-7.71191l-7.55493.68689A56.01807,56.01807,0,0,0,336,384H104a56.03137,56.03137,0,0,0-47.84167,26.89038l-7.53235-.68481a29.91695,29.91695,0,1,0-2.69287,59.71093c.895,0,1.79443-.04052,2.69238-.12207l7.5321-.68469A56.36491,56.36491,0,0,0,104,496H336a55.5933,55.5933,0,0,0,39.59375-16.3999,56.29266,56.29266,0,0,0,8.26105-10.48657l7.53094.68481c.90137.08057,1.81787.12158,2.72412.12158a29.91842,29.91842,0,0,0,20.15284-52.00537ZM47.17676,453.85986A13.91812,13.91812,0,1,1,45.874,426.08057q.64746,0,1.30323.05957l48.16406,4.37841a9.52054,9.52054,0,0,1,0,18.9629h.00049ZM74.91791,467.4043,96.79,465.416h.00049A25.52089,25.52089,0,0,0,96.79,414.584L74.87628,412.5918c.27844-.29492.55585-.59058.84393-.87793A39.99923,39.99923,0,1,1,104,480,40.21831,40.21831,0,0,1,74.91791,467.4043Zm289.36188.88183A39.70208,39.70208,0,0,1,336,480H143.13831a55.87567,55.87567,0,0,0,0-80H336a39.99815,39.99815,0,0,1,28.27979,68.28613Zm29.83007-14.36621c-.43115,0-.86718-.01953-1.28515-.05713l-2.48725-.22607a56.35543,56.35543,0,0,0-.024-27.27149l2.50683-.228a13.91993,13.91993,0,1,1,1.28955,27.78271Z"/></g></svg>
