<?xml version="1.0" encoding="iso-8859-1"?>
<!-- Generator: Adobe Illustrator 19.0.0, SVG Export Plug-In . SVG Version: 6.00 Build 0)  -->
<svg version="1.1" id="Capa_1" xmlns="http://www.w3.org/2000/svg" xmlns:xlink="http://www.w3.org/1999/xlink" x="0px" y="0px"
	 viewBox="0 0 511.997 511.997" style="enable-background:new 0 0 511.997 511.997;" xml:space="preserve">
<path style="fill:#91CECE;" d="M273.065,349.861H42.669c-18.85,0-34.133-15.283-34.133-34.133V42.666
	c0-18.85,15.283-34.133,34.133-34.133h426.66c18.85,0,34.133,15.283,34.133,34.133v273.062c0,18.85-15.283,34.133-34.133,34.133l0,0
	"/>
<path style="fill:#83B2B7;" d="M17.547,338.665c6.417,7.117,15.547,11.178,25.122,11.196h426.66
	c18.85,0,34.133-15.283,34.133-34.133V64.562C415.945,215.89,127.54,308.219,17.547,338.665z"/>
<circle style="fill:#FFD33F;" cx="255.998" cy="255.996" r="59.732"/>
<path style="fill:#FFAC3E;" d="M293.741,209.72c20.778,25.625,16.853,63.239-8.772,84.018c-21.93,17.783-53.315,17.783-75.246,0
	c20.778,25.625,58.393,29.55,84.018,8.772c25.625-20.778,29.55-58.393,8.772-84.018C299.902,215.267,296.966,212.331,293.741,209.72
	z"/>
<g>
	<path style="fill:#FFD33F;" d="M460.795,286.775c16.913-28.322,7.654-64.997-20.667-81.91
		c-28.322-16.913-64.997-7.654-81.91,20.667c-0.939,1.579-1.809,3.2-2.603,4.855"/>
	<circle style="fill:#FFD33F;" cx="255.998" cy="102.398" r="59.732"/>
	<circle style="fill:#FFD33F;" cx="102.401" cy="102.398" r="59.732"/>
	<circle style="fill:#FFD33F;" cx="409.596" cy="102.398" r="59.732"/>
	<circle style="fill:#FFD33F;" cx="102.401" cy="255.996" r="59.732"/>
</g>
<g>
	<path style="fill:#FFAC3E;" d="M293.741,56.123c20.778,25.625,16.853,63.239-8.772,84.018c-21.93,17.783-53.315,17.783-75.246,0
		c20.778,25.625,58.393,29.55,84.018,8.772c25.625-20.778,29.55-58.393,8.772-84.018C299.902,61.669,296.966,58.734,293.741,56.123z
		"/>
	<path style="fill:#FFAC3E;" d="M140.143,56.123c20.778,25.625,16.853,63.239-8.772,84.018c-21.93,17.783-53.315,17.783-75.246,0
		c20.778,25.625,58.393,29.55,84.018,8.772s29.55-58.393,8.772-84.018C146.304,61.669,143.369,58.734,140.143,56.123z"/>
	<path style="fill:#FFAC3E;" d="M447.338,56.123c20.778,25.625,16.853,63.239-8.772,84.018c-21.93,17.783-53.315,17.783-75.246,0
		c20.778,25.625,58.393,29.55,84.018,8.772s29.55-58.393,8.772-84.018C453.499,61.669,450.564,58.734,447.338,56.123z"/>
	<path style="fill:#FFAC3E;" d="M140.143,209.72c20.778,25.625,16.853,63.239-8.772,84.018c-21.93,17.783-53.315,17.783-75.246,0
		c20.778,25.625,58.393,29.55,84.018,8.772c25.625-20.778,29.55-58.393,8.772-84.018
		C146.304,215.267,143.369,212.331,140.143,209.72z"/>
	<path style="fill:#FFAC3E;" d="M447.338,209.72c16.759,20.505,17.979,49.612,3.012,71.457l10.445,5.598
		C476.095,261.32,470.361,228.485,447.338,209.72z"/>
</g>
<rect x="85.335" y="68.266" width="17.066" height="17.066"/>
<rect x="119.467" y="93.865" width="17.066" height="17.066"/>
<rect x="247.465" y="68.266" width="17.066" height="17.066"/>
<rect x="230.399" y="119.465" width="17.066" height="17.066"/>
<rect x="68.268" y="238.929" width="17.066" height="17.066"/>
<rect x="110.934" y="264.529" width="17.066" height="17.066"/>
<rect x="102.401" y="221.863" width="17.066" height="17.066"/>
<rect x="264.532" y="238.929" width="17.066" height="17.066"/>
<rect x="238.932" y="264.529" width="17.066" height="17.066"/>
<rect x="375.463" y="102.398" width="17.066" height="17.066"/>
<rect x="418.129" y="110.931" width="17.066" height="17.066"/>
<rect x="401.063" y="68.266" width="17.066" height="17.066"/>
<rect x="230.399" y="221.863" width="17.066" height="17.066"/>
<rect x="76.801" y="110.931" width="17.066" height="17.066"/>
<rect x="273.065" y="102.398" width="17.066" height="17.066"/>
<path d="M58.882,387.808c2.108-4.215,0.393-9.344-3.823-11.452c-4.215-2.108-9.344-0.393-11.452,3.823l-4.267,8.533
	c-9.207,18.526-9.207,40.302,0,58.828c6.827,13.721,6.827,29.849,0,43.57l-4.267,8.533c-2.108,4.215-0.393,9.344,3.823,11.452
	s9.344,0.393,11.452-3.823l0,0l4.267-8.533c9.207-18.526,9.207-40.302,0-58.828c-6.827-13.721-6.827-29.849,0-43.57L58.882,387.808z
	"/>
<path d="M161.28,387.808c2.108-4.215,0.393-9.344-3.823-11.452c-4.215-2.108-9.344-0.393-11.452,3.823l0,0l-4.267,8.533
	c-9.207,18.526-9.207,40.302,0,58.828c6.827,13.721,6.827,29.849,0,43.57l-4.267,8.533c-2.108,4.215-0.393,9.344,3.823,11.452
	c4.215,2.108,9.344,0.393,11.452-3.823l0,0l4.267-8.533c9.207-18.526,9.207-40.302,0-58.828c-6.827-13.721-6.827-29.849,0-43.57
	L161.28,387.808z"/>
<path d="M110.081,387.808c2.108-4.215,0.393-9.344-3.823-11.452c-4.215-2.108-9.344-0.393-11.452,3.823l0,0l-4.267,8.533
	c-9.207,18.526-9.207,40.302,0,58.828c6.827,13.721,6.827,29.849,0,43.57l-4.267,8.533c-2.108,4.215-0.393,9.344,3.823,11.452
	c4.215,2.108,9.344,0.393,11.452-3.823l0,0l4.267-8.533c9.207-18.526,9.207-40.302,0-58.828c-6.827-13.721-6.827-29.849,0-43.57
	L110.081,387.808z"/>
<path style="fill:#EA3836;" d="M469.328,343.888v-15.36c0-54.194-43.929-98.132-98.132-98.132s-98.132,43.937-98.132,98.132v63.999
	l-14.993-14.993c-13.952-14.319-36.88-14.617-51.199-0.666c-14.319,13.952-14.617,36.88-0.666,51.199
	c0.222,0.222,0.444,0.444,0.666,0.666l55.466,55.466C306.43,476.707,435.127,446.201,469.328,343.888z"/>
<path style="fill:#D62121;" d="M262.364,484.224l2.167,2.167v17.066h204.797V343.888
	C435.127,446.201,306.43,476.707,262.364,484.224z"/>
<path d="M255.998,34.133c-37.7,0-68.266,30.566-68.266,68.266s30.566,68.266,68.266,68.266s68.266-30.566,68.266-68.266
	C324.221,64.716,293.69,34.175,255.998,34.133z M255.998,153.597c-28.279,0-51.199-22.92-51.199-51.199s22.92-51.199,51.199-51.199
	s51.199,22.92,51.199,51.199C307.172,130.66,284.269,153.572,255.998,153.597z"/>
<path d="M102.401,34.133c-37.7,0-68.266,30.566-68.266,68.266s30.566,68.266,68.266,68.266s68.266-30.566,68.266-68.266
	C170.624,64.716,140.092,34.175,102.401,34.133z M102.401,153.597c-28.279,0-51.199-22.92-51.199-51.199s22.92-51.199,51.199-51.199
	s51.199,22.92,51.199,51.199C153.575,130.66,130.671,153.572,102.401,153.597z"/>
<path d="M409.596,34.133c-37.7,0-68.266,30.566-68.266,68.266s30.566,68.266,68.266,68.266s68.266-30.566,68.266-68.266
	C477.819,64.716,447.287,34.175,409.596,34.133z M409.596,153.597c-28.279,0-51.199-22.92-51.199-51.199s22.92-51.199,51.199-51.199
	s51.199,22.92,51.199,51.199C460.769,130.66,437.866,153.572,409.596,153.597z"/>
<path d="M102.401,187.73c-37.7,0-68.266,30.566-68.266,68.266s30.566,68.266,68.266,68.266s68.266-30.566,68.266-68.266
	C170.624,218.313,140.092,187.773,102.401,187.73z M102.401,307.195c-28.279,0-51.199-22.92-51.199-51.199
	s22.92-51.199,51.199-51.199s51.199,22.92,51.199,51.199C153.575,284.258,130.671,307.169,102.401,307.195z"/>
<path d="M469.328,0H42.669C19.117,0.026,0.037,19.114,0.003,42.666v273.062c0.026,23.552,19.114,42.64,42.666,42.666h221.863v13.534
	l-0.435-0.435c-17.467-17.467-45.798-17.467-63.265,0c-17.467,17.467-17.467,45.798,0,63.265l0,0l55.167,55.167v13.534
	c0,4.71,3.823,8.533,8.533,8.533h204.797c4.71,0,8.533-3.823,8.533-8.533V357.541c19.848-4.079,34.107-21.546,34.133-41.813V42.666
	C511.969,19.114,492.88,0.026,469.328,0z M267.006,305.864c-3.61,0.845-7.296,1.288-11.008,1.331
	c-28.279,0.119-51.293-22.715-51.404-50.986c-0.119-28.279,22.715-51.293,50.986-51.404c23.936-0.094,44.748,16.401,50.107,39.731
	C286.035,259.836,272.357,281.536,267.006,305.864z M460.795,494.925h-187.73v-8.533c0-2.261-0.896-4.437-2.5-6.033l-57.667-57.667
	c-10.684-10.931-10.487-28.45,0.444-39.133c10.752-10.513,27.938-10.513,38.689,0l15.001,15.001c3.336,3.328,8.738,3.328,12.066,0
	c1.604-1.604,2.5-3.772,2.5-6.033v-63.999c0-49.484,40.115-89.598,89.599-89.598s89.599,40.115,89.599,89.598V494.925z
	 M459.208,268.377c-8.064-11.725-18.38-21.734-30.344-29.448h6.332v-17.066h-17.066v11.025
	c-14.506-7.202-30.472-10.974-46.668-11.025c18.705-21.12,50.994-23.074,72.114-4.369c14.327,12.689,20.36,32.324,15.633,50.866
	V268.377z M494.928,315.728c-0.043,10.812-6.878,20.428-17.066,24.029v-11.23c0-13.935-2.748-27.741-8.081-40.618
	c17.613-33.245,4.941-74.478-28.305-92.09s-74.478-4.941-92.09,28.305l0,0c-9.984,2.082-19.609,5.598-28.586,10.436
	c-11.639-36.078-50.312-55.884-86.39-44.245c-36.078,11.639-55.884,50.312-44.245,86.39c10.214,31.658,41.659,51.438,74.614,46.933
	c-0.077,1.63-0.247,3.234-0.247,4.89v12.8H42.669c-14.139,0-25.6-11.46-25.6-25.6V42.666c0-14.139,11.46-25.6,25.6-25.6h426.66
	c14.14,0,25.6,11.46,25.6,25.6V315.728z"/>
<g>
</g>
<g>
</g>
<g>
</g>
<g>
</g>
<g>
</g>
<g>
</g>
<g>
</g>
<g>
</g>
<g>
</g>
<g>
</g>
<g>
</g>
<g>
</g>
<g>
</g>
<g>
</g>
<g>
</g>
</svg>
