<svg id="Capa_1" enable-background="new 0 0 512 512" height="512" viewBox="0 0 512 512" width="512" xmlns="http://www.w3.org/2000/svg"><g><path d="m419.68 163.97v223.03h-371.71v-223.03l185.86-111.51z" fill="#ffa001"/><path d="m419.68 163.97v223.03h-185.85v-334.54z" fill="#f87f02"/><path d="m0 163.971 47.968-111.515h185.858l-47.968 111.515z" fill="#ffda2d"/><path d="m467.651 163.971-47.968-111.515h-185.857l47.968 111.515z" fill="#fcbe00"/><path d="m107.714 293.542h30v30h-30z" fill="#ffda2d"/><path d="m512 349.834c0 60.59-49.12 109.71-109.71 109.71-60.6 0-109.72-49.12-109.72-109.71 0-60.6 49.12-109.72 109.72-109.72 60.59 0 109.71 49.119 109.71 109.72z" fill="#83e470"/><path d="m512 349.834c0 60.59-49.12 109.71-109.71 109.71v-219.43c60.59 0 109.71 49.119 109.71 109.72z" fill="#01b763"/><path d="m459.7 332.064-57.41 57.409-9.95 9.951-47.47-47.471 21.22-21.21 26.25 26.25 9.95-9.949 36.19-36.19z" fill="#f3fdff"/><path d="m459.7 332.064-57.41 57.409v-42.429l36.19-36.19z" fill="#d7f3f7"/></g></svg>